<svg width="51" height="42" viewBox="0 0 51 42" fill="none" xmlns="http://www.w3.org/2000/svg">
<path d="M49.8889 36.5556C49.8889 37.7343 49.4206 38.8648 48.5871 39.6983C47.7536 40.5317 46.6232 41 45.4444 41H5.44444C4.2657 41 3.13524 40.5317 2.30175 39.6983C1.46825 38.8648 1 37.7343 1 36.5556V12.1111C1 10.9324 1.46825 9.80191 2.30175 8.96841C3.13524 8.13492 4.2657 7.66667 5.44444 7.66667H14.3333L18.7778 1H32.1111L36.5555 7.66667H45.4444C46.6232 7.66667 47.7536 8.13492 48.5871 8.96841C49.4206 9.80191 49.8889 10.9324 49.8889 12.1111V36.5556Z" stroke="#7159C1" stroke-width="2" stroke-linecap="round" stroke-linejoin="round"/>
<path d="M35.9296 15.3827C35.3471 14.7938 34.6555 14.3267 33.8944 14.008C33.1332 13.6893 32.3173 13.5253 31.4934 13.5253C30.6694 13.5253 29.8535 13.6893 29.0924 14.008C28.3312 14.3267 27.6396 14.7938 27.0571 15.3827L25.8483 16.6042L24.6394 15.3827C23.4629 14.1938 21.8671 13.5259 20.2032 13.5259C18.5393 13.5259 16.9435 14.1938 15.7669 15.3827C14.5904 16.5716 13.9294 18.1841 13.9294 19.8655C13.9294 21.5468 14.5904 23.1594 15.7669 24.3483L16.9758 25.5698L25.8483 34.5353L34.7208 25.5698L35.9296 24.3483C36.5124 23.7597 36.9746 23.0608 37.29 22.2917C37.6054 21.5225 37.7678 20.6981 37.7678 19.8655C37.7678 19.0329 37.6054 18.2085 37.29 17.4393C36.9746 16.6701 36.5124 15.9713 35.9296 15.3827V15.3827Z" stroke="#7159C1" stroke-width="2" stroke-linecap="round" stroke-linejoin="round"/>
</svg>
