<svg width="324" height="53" viewBox="0 0 324 53" fill="none" xmlns="http://www.w3.org/2000/svg">
<path d="M75.36 34.86C74.632 37.408 73.288 39.354 71.328 40.698C69.368 42.014 67.058 42.672 64.398 42.672C60.786 42.672 57.972 41.398 55.956 38.85C53.968 36.302 52.974 32.452 52.974 27.3C52.974 25.368 53.142 23.408 53.478 21.42C53.814 19.432 54.402 17.64 55.242 16.044C56.082 14.42 57.202 13.09 58.602 12.054C60.03 11.018 61.822 10.5 63.978 10.5C65.042 10.5 66.05 10.64 67.002 10.92C67.954 11.2 68.78 11.62 69.48 12.18C70.208 12.712 70.782 13.384 71.202 14.196C71.622 15.008 71.832 15.96 71.832 17.052C71.832 17.948 71.664 18.662 71.328 19.194C70.992 19.726 70.418 19.992 69.606 19.992C69.214 19.992 68.836 19.936 68.472 19.824C68.136 19.684 67.856 19.488 67.632 19.236C67.884 19.04 68.108 18.634 68.304 18.018C68.528 17.402 68.64 16.702 68.64 15.918C68.64 14.574 68.318 13.594 67.674 12.978C67.03 12.334 66.176 12.012 65.112 12.012C63.852 12.012 62.76 12.432 61.836 13.272C60.94 14.084 60.198 15.176 59.61 16.548C59.022 17.92 58.588 19.474 58.308 21.21C58.056 22.946 57.93 24.738 57.93 26.586C57.93 28.882 58.126 30.842 58.518 32.466C58.91 34.09 59.484 35.42 60.24 36.456C60.996 37.492 61.92 38.262 63.012 38.766C64.132 39.242 65.406 39.48 66.834 39.48C68.654 39.48 70.166 39.088 71.37 38.304C72.574 37.492 73.554 36.204 74.31 34.44L75.36 34.86ZM81.8231 20.79C82.9151 20.79 83.8531 20.958 84.6371 21.294C85.4211 21.63 86.0651 22.106 86.5691 22.722C87.0731 23.31 87.4651 24.01 87.7451 24.822C88.0531 25.634 88.2771 26.502 88.4171 27.426H88.6691C89.8451 27.426 90.9231 27.188 91.9031 26.712C92.8831 26.236 93.7231 25.634 94.4231 24.906L95.0531 26.04C94.4931 26.936 93.5971 27.678 92.3651 28.266C91.1611 28.854 89.9151 29.26 88.6271 29.484C88.6271 29.764 88.6271 30.044 88.6271 30.324C88.6551 30.604 88.6691 30.898 88.6691 31.206C88.6691 34.65 88.0391 37.352 86.7791 39.312C85.5191 41.272 83.7551 42.252 81.4871 42.252C80.5631 42.252 79.6251 42.084 78.6731 41.748C77.7491 41.412 76.9091 40.852 76.1531 40.068C75.3971 39.284 74.7811 38.276 74.3051 37.044C73.8571 35.812 73.6331 34.286 73.6331 32.466C73.6331 31.234 73.7591 29.932 74.0111 28.56C74.2911 27.188 74.7391 25.928 75.3551 24.78C75.9991 23.632 76.8391 22.68 77.8751 21.924C78.9391 21.168 80.2551 20.79 81.8231 20.79ZM82.2431 39.06C83.7271 39.06 84.8191 38.332 85.5191 36.876C86.2191 35.392 86.5691 33.306 86.5691 30.618C86.5691 30.45 86.5691 30.282 86.5691 30.114C86.5691 29.946 86.5551 29.778 86.5271 29.61C85.7151 29.554 85.1271 29.372 84.7631 29.064C84.4271 28.756 84.2591 28.238 84.2591 27.51C84.2591 26.866 84.3991 26.418 84.6791 26.166C84.9591 25.886 85.3791 25.732 85.9391 25.704C85.6031 24.724 85.1691 24.052 84.6371 23.688C84.1331 23.296 83.5591 23.1 82.9151 23.1C82.0471 23.1 81.3051 23.394 80.6891 23.982C80.1011 24.542 79.6111 25.27 79.2191 26.166C78.8551 27.062 78.5891 28.056 78.4211 29.148C78.2531 30.212 78.1691 31.262 78.1691 32.298C78.1691 33.67 78.2951 34.79 78.5471 35.658C78.7991 36.526 79.1211 37.212 79.5131 37.716C79.9051 38.22 80.3391 38.57 80.8151 38.766C81.2911 38.962 81.7671 39.06 82.2431 39.06ZM95.9328 21V23.898C96.6608 22.554 97.4308 21.7 98.2428 21.336C99.0548 20.972 99.8248 20.79 100.553 20.79C101.281 20.79 101.911 20.888 102.443 21.084C103.003 21.28 103.479 21.546 103.871 21.882C104.263 22.218 104.585 22.61 104.837 23.058C105.117 23.506 105.341 23.996 105.509 24.528C105.901 23.688 106.307 23.03 106.727 22.554C107.147 22.05 107.567 21.672 107.987 21.42C108.407 21.14 108.813 20.972 109.205 20.916C109.625 20.832 110.003 20.79 110.339 20.79C111.599 20.79 112.607 21.028 113.363 21.504C114.147 21.98 114.735 22.596 115.127 23.352C115.519 24.08 115.771 24.892 115.883 25.788C116.023 26.656 116.093 27.496 116.093 28.308C116.093 28.812 116.079 29.372 116.051 29.988C116.023 30.576 115.995 31.192 115.967 31.836C115.939 32.452 115.911 33.082 115.883 33.726C115.855 34.342 115.841 34.916 115.841 35.448C115.841 35.672 115.855 35.994 115.883 36.414C115.911 36.806 115.981 37.198 116.093 37.59C116.205 37.982 116.387 38.332 116.639 38.64C116.891 38.92 117.255 39.06 117.731 39.06C118.375 39.06 118.949 38.696 119.453 37.968C119.985 37.24 120.419 36.078 120.755 34.482H122.309C122.001 36.246 121.609 37.646 121.133 38.682C120.657 39.69 120.153 40.46 119.621 40.992C119.089 41.524 118.557 41.86 118.025 42C117.493 42.168 117.003 42.252 116.555 42.252C115.659 42.252 114.903 42.084 114.287 41.748C113.671 41.384 113.167 40.908 112.775 40.32C112.383 39.732 112.089 39.046 111.893 38.262C111.725 37.478 111.641 36.666 111.641 35.826C111.641 35.574 111.641 35.112 111.641 34.44C111.669 33.74 111.683 32.998 111.683 32.214C111.711 31.43 111.725 30.688 111.725 29.988C111.753 29.288 111.767 28.798 111.767 28.518C111.767 27.622 111.697 26.88 111.557 26.292C111.417 25.704 111.221 25.242 110.969 24.906C110.717 24.57 110.423 24.332 110.087 24.192C109.779 24.052 109.443 23.982 109.079 23.982C108.211 23.982 107.497 24.332 106.937 25.032C106.405 25.732 106.027 26.908 105.803 28.56V42H101.603V27.972C101.603 27.468 101.575 26.978 101.519 26.502C101.491 26.026 101.393 25.606 101.225 25.242C101.057 24.85 100.819 24.542 100.511 24.318C100.203 24.094 99.7828 23.982 99.2508 23.982C98.3548 23.982 97.6688 24.36 97.1928 25.116C96.7448 25.844 96.3248 26.992 95.9328 28.56V42H91.7328V21H95.9328ZM125.096 19.446V22.68C125.628 22.12 126.244 21.672 126.944 21.336C127.672 20.972 128.512 20.79 129.464 20.79C130.444 20.79 131.354 21 132.194 21.42C133.034 21.84 133.762 22.484 134.378 23.352C135.022 24.192 135.526 25.27 135.89 26.586C136.254 27.874 136.436 29.414 136.436 31.206C136.436 34.706 135.778 37.422 134.462 39.354C133.146 41.286 131.396 42.252 129.212 42.252C128.288 42.252 127.49 42.084 126.818 41.748C126.174 41.384 125.6 40.88 125.096 40.236V51.45L120.854 52.5V19.446H125.096ZM127.994 23.52C127.378 23.52 126.818 23.702 126.314 24.066C125.838 24.402 125.432 24.892 125.096 25.536V38.136C125.488 38.64 125.922 39.004 126.398 39.228C126.902 39.452 127.392 39.564 127.868 39.564C128.568 39.564 129.184 39.34 129.716 38.892C130.248 38.444 130.696 37.842 131.06 37.086C131.452 36.302 131.746 35.392 131.942 34.356C132.138 33.32 132.236 32.214 132.236 31.038C132.236 29.582 132.096 28.378 131.816 27.426C131.564 26.446 131.228 25.676 130.808 25.116C130.388 24.528 129.926 24.122 129.422 23.898C128.918 23.646 128.442 23.52 127.994 23.52ZM154.112 21V35.28C154.112 35.56 154.126 35.91 154.154 36.33C154.182 36.75 154.252 37.17 154.364 37.59C154.504 37.982 154.7 38.332 154.952 38.64C155.204 38.92 155.554 39.06 156.002 39.06C157.374 39.06 158.382 37.534 159.026 34.482H160.58C160.272 36.246 159.88 37.646 159.404 38.682C158.928 39.69 158.424 40.46 157.892 40.992C157.36 41.524 156.814 41.86 156.254 42C155.694 42.168 155.19 42.252 154.742 42.252C154.098 42.252 153.538 42.14 153.062 41.916C152.614 41.692 152.222 41.398 151.886 41.034C151.578 40.67 151.326 40.25 151.13 39.774C150.934 39.298 150.78 38.794 150.668 38.262C150.248 39.354 149.562 40.292 148.61 41.076C147.686 41.86 146.552 42.252 145.208 42.252C144.368 42.252 143.514 42.084 142.646 41.748C141.806 41.412 141.036 40.866 140.336 40.11C139.664 39.326 139.104 38.332 138.656 37.128C138.236 35.896 138.026 34.398 138.026 32.634C138.026 31.346 138.166 30.002 138.446 28.602C138.754 27.202 139.23 25.928 139.874 24.78C140.518 23.632 141.344 22.68 142.352 21.924C143.36 21.168 144.578 20.79 146.006 20.79C146.342 20.79 146.692 20.832 147.056 20.916C147.448 20.972 147.812 21.084 148.148 21.252C148.512 21.42 148.848 21.658 149.156 21.966C149.464 22.246 149.716 22.596 149.912 23.016V21H154.112ZM146.258 39.06C146.678 39.06 147.098 38.948 147.518 38.724C147.966 38.472 148.358 38.15 148.694 37.758C149.058 37.338 149.352 36.848 149.576 36.288C149.8 35.728 149.912 35.126 149.912 34.482V24.906C149.716 24.458 149.408 24.052 148.988 23.688C148.596 23.296 148.078 23.1 147.434 23.1C146.538 23.1 145.768 23.408 145.124 24.024C144.48 24.612 143.962 25.368 143.57 26.292C143.178 27.188 142.884 28.182 142.688 29.274C142.52 30.338 142.436 31.36 142.436 32.34C142.436 34.748 142.758 36.47 143.402 37.506C144.074 38.542 145.026 39.06 146.258 39.06ZM163.198 21V24.528C163.534 24.024 163.856 23.548 164.164 23.1C164.5 22.652 164.864 22.26 165.256 21.924C165.648 21.588 166.082 21.322 166.558 21.126C167.034 20.902 167.566 20.79 168.154 20.79C169.106 20.79 169.806 21.042 170.254 21.546C170.702 22.022 170.926 22.61 170.926 23.31C170.926 23.73 170.856 24.08 170.716 24.36C170.576 24.64 170.408 24.864 170.212 25.032C170.016 25.2 169.806 25.326 169.582 25.41C169.358 25.466 169.162 25.494 168.994 25.494C168.742 25.494 168.532 25.438 168.364 25.326C168.224 25.214 168.07 25.102 167.902 24.99C167.762 24.85 167.594 24.724 167.398 24.612C167.202 24.5 166.95 24.444 166.642 24.444C165.998 24.444 165.382 24.668 164.794 25.116C164.206 25.564 163.674 26.04 163.198 26.544V42H158.998V21H163.198ZM177.35 14.616V21H180.584V22.47H177.35V35.28C177.35 35.616 177.364 36.008 177.392 36.456C177.42 36.876 177.49 37.282 177.602 37.674C177.742 38.066 177.938 38.402 178.19 38.682C178.47 38.934 178.848 39.06 179.324 39.06C180.08 39.06 180.794 38.682 181.466 37.926C182.166 37.17 182.712 36.022 183.104 34.482H184.658C184.182 36.246 183.664 37.646 183.104 38.682C182.572 39.69 182.012 40.46 181.424 40.992C180.836 41.524 180.248 41.86 179.66 42C179.1 42.168 178.582 42.252 178.106 42.252C177.098 42.252 176.272 42.07 175.628 41.706C174.984 41.314 174.48 40.824 174.116 40.236C173.752 39.648 173.5 39.004 173.36 38.304C173.22 37.576 173.15 36.862 173.15 36.162V22.47H171.722V21H173.15V15.204L177.35 14.616ZM187.276 21V35.28C187.276 35.56 187.29 35.91 187.318 36.33C187.346 36.75 187.416 37.17 187.528 37.59C187.668 37.982 187.864 38.332 188.116 38.64C188.368 38.92 188.718 39.06 189.166 39.06C190.538 39.06 191.546 37.534 192.19 34.482H193.744C193.436 36.246 193.044 37.646 192.568 38.682C192.092 39.69 191.588 40.46 191.056 40.992C190.524 41.524 189.978 41.86 189.418 42C188.858 42.168 188.354 42.252 187.906 42.252C186.926 42.252 186.128 42.07 185.512 41.706C184.896 41.314 184.406 40.824 184.042 40.236C183.678 39.648 183.426 38.99 183.286 38.262C183.146 37.534 183.076 36.834 183.076 36.162V21H187.276ZM182.32 14.952C182.32 14.196 182.586 13.538 183.118 12.978C183.65 12.418 184.308 12.138 185.092 12.138C185.848 12.138 186.506 12.418 187.066 12.978C187.626 13.538 187.906 14.196 187.906 14.952C187.906 15.736 187.626 16.394 187.066 16.926C186.506 17.458 185.848 17.724 185.092 17.724C184.308 17.724 183.65 17.458 183.118 16.926C182.586 16.394 182.32 15.736 182.32 14.952ZM196.381 12.6V35.28C196.381 35.56 196.395 35.91 196.423 36.33C196.451 36.75 196.521 37.17 196.633 37.59C196.773 37.982 196.969 38.332 197.221 38.64C197.473 38.92 197.823 39.06 198.271 39.06C199.643 39.06 200.651 37.534 201.295 34.482H202.849C202.541 36.246 202.149 37.646 201.673 38.682C201.197 39.69 200.693 40.46 200.161 40.992C199.629 41.524 199.083 41.86 198.523 42C197.963 42.168 197.459 42.252 197.011 42.252C196.031 42.252 195.233 42.07 194.617 41.706C194.001 41.314 193.511 40.824 193.147 40.236C192.783 39.648 192.531 38.99 192.391 38.262C192.251 37.534 192.181 36.834 192.181 36.162V13.188L196.381 12.6ZM205.403 12.6V24.192C205.823 23.436 206.243 22.834 206.663 22.386C207.111 21.91 207.559 21.56 208.007 21.336C208.455 21.112 208.875 20.972 209.267 20.916C209.687 20.832 210.079 20.79 210.443 20.79C211.703 20.79 212.711 21.028 213.467 21.504C214.251 21.98 214.839 22.596 215.231 23.352C215.623 24.08 215.875 24.892 215.987 25.788C216.127 26.656 216.197 27.496 216.197 28.308C216.197 28.812 216.183 29.372 216.155 29.988C216.127 30.576 216.099 31.192 216.071 31.836C216.043 32.452 216.015 33.082 215.987 33.726C215.959 34.342 215.945 34.916 215.945 35.448C215.945 35.672 215.959 35.994 215.987 36.414C216.015 36.806 216.085 37.198 216.197 37.59C216.309 37.982 216.491 38.332 216.743 38.64C216.995 38.92 217.359 39.06 217.835 39.06C218.479 39.06 219.053 38.696 219.557 37.968C220.089 37.24 220.523 36.078 220.859 34.482H222.413C222.105 36.246 221.713 37.646 221.237 38.682C220.761 39.69 220.257 40.46 219.725 40.992C219.193 41.524 218.661 41.86 218.129 42C217.597 42.168 217.107 42.252 216.659 42.252C215.763 42.252 215.007 42.084 214.391 41.748C213.775 41.384 213.271 40.908 212.879 40.32C212.487 39.732 212.193 39.046 211.997 38.262C211.829 37.478 211.745 36.666 211.745 35.826C211.745 35.574 211.745 35.112 211.745 34.44C211.773 33.74 211.787 32.998 211.787 32.214C211.815 31.43 211.829 30.688 211.829 29.988C211.857 29.288 211.871 28.798 211.871 28.518C211.871 27.622 211.801 26.88 211.661 26.292C211.521 25.704 211.325 25.242 211.073 24.906C210.821 24.57 210.527 24.332 210.191 24.192C209.883 24.052 209.547 23.982 209.183 23.982C208.315 23.982 207.559 24.332 206.915 25.032C206.299 25.732 205.795 26.908 205.403 28.56V42H201.203V13.188L205.403 12.6ZM236.307 21V35.28C236.307 35.56 236.321 35.91 236.349 36.33C236.377 36.75 236.447 37.17 236.559 37.59C236.699 37.982 236.895 38.332 237.147 38.64C237.399 38.92 237.749 39.06 238.197 39.06C239.569 39.06 240.577 37.534 241.221 34.482H242.775C242.467 36.246 242.075 37.646 241.599 38.682C241.123 39.69 240.619 40.46 240.087 40.992C239.555 41.524 239.009 41.86 238.449 42C237.889 42.168 237.385 42.252 236.937 42.252C236.293 42.252 235.733 42.14 235.257 41.916C234.809 41.692 234.417 41.398 234.081 41.034C233.773 40.67 233.521 40.25 233.325 39.774C233.129 39.298 232.975 38.794 232.863 38.262C232.443 39.354 231.757 40.292 230.805 41.076C229.881 41.86 228.747 42.252 227.403 42.252C226.563 42.252 225.709 42.084 224.841 41.748C224.001 41.412 223.231 40.866 222.531 40.11C221.859 39.326 221.299 38.332 220.851 37.128C220.431 35.896 220.221 34.398 220.221 32.634C220.221 31.346 220.361 30.002 220.641 28.602C220.949 27.202 221.425 25.928 222.069 24.78C222.713 23.632 223.539 22.68 224.547 21.924C225.555 21.168 226.773 20.79 228.201 20.79C228.537 20.79 228.887 20.832 229.251 20.916C229.643 20.972 230.007 21.084 230.343 21.252C230.707 21.42 231.043 21.658 231.351 21.966C231.659 22.246 231.911 22.596 232.107 23.016V21H236.307ZM228.453 39.06C228.873 39.06 229.293 38.948 229.713 38.724C230.161 38.472 230.553 38.15 230.889 37.758C231.253 37.338 231.547 36.848 231.771 36.288C231.995 35.728 232.107 35.126 232.107 34.482V24.906C231.911 24.458 231.603 24.052 231.183 23.688C230.791 23.296 230.273 23.1 229.629 23.1C228.733 23.1 227.963 23.408 227.319 24.024C226.675 24.612 226.157 25.368 225.765 26.292C225.373 27.188 225.079 28.182 224.883 29.274C224.715 30.338 224.631 31.36 224.631 32.34C224.631 34.748 224.953 36.47 225.597 37.506C226.269 38.542 227.221 39.06 228.453 39.06ZM256.692 21V41.118C257.392 40.894 258.008 40.642 258.54 40.362C259.1 40.082 259.576 39.704 259.968 39.228C260.388 38.752 260.724 38.136 260.976 37.38C261.256 36.624 261.466 35.658 261.606 34.482H263.16C262.936 35.966 262.642 37.184 262.278 38.136C261.942 39.06 261.508 39.816 260.976 40.404C260.472 40.964 259.856 41.412 259.128 41.748C258.428 42.056 257.616 42.35 256.692 42.63V45.318C256.692 46.634 256.552 47.74 256.272 48.636C255.992 49.56 255.6 50.302 255.096 50.862C254.62 51.45 254.06 51.87 253.416 52.122C252.8 52.374 252.142 52.5 251.442 52.5C250.042 52.5 248.95 52.094 248.166 51.282C247.382 50.498 246.99 49.532 246.99 48.384C246.99 47.656 247.144 46.998 247.452 46.41C247.788 45.822 248.208 45.276 248.712 44.772C249.244 44.296 249.832 43.862 250.476 43.47C251.148 43.106 251.82 42.784 252.492 42.504V38.892C251.96 39.62 251.288 40.222 250.476 40.698C249.692 41.174 248.796 41.412 247.788 41.412C246.948 41.412 246.094 41.258 245.226 40.95C244.386 40.614 243.616 40.082 242.916 39.354C242.244 38.626 241.684 37.674 241.236 36.498C240.816 35.322 240.606 33.894 240.606 32.214C240.606 30.954 240.746 29.652 241.026 28.308C241.334 26.964 241.81 25.746 242.454 24.654C243.098 23.534 243.924 22.61 244.932 21.882C245.94 21.154 247.158 20.79 248.586 20.79C248.922 20.79 249.272 20.832 249.636 20.916C250.028 20.972 250.392 21.084 250.728 21.252C251.092 21.42 251.428 21.658 251.736 21.966C252.044 22.246 252.296 22.596 252.492 23.016V21H256.692ZM248.838 38.22C249.258 38.22 249.678 38.108 250.098 37.884C250.546 37.66 250.938 37.352 251.274 36.96C251.638 36.568 251.932 36.106 252.156 35.574C252.38 35.042 252.492 34.468 252.492 33.852V24.906C252.296 24.458 251.988 24.052 251.568 23.688C251.176 23.296 250.658 23.1 250.014 23.1C249.118 23.1 248.348 23.394 247.704 23.982C247.06 24.542 246.542 25.256 246.15 26.124C245.758 26.992 245.464 27.944 245.268 28.98C245.1 30.016 245.016 30.996 245.016 31.92C245.016 34.188 245.338 35.812 245.982 36.792C246.654 37.744 247.606 38.22 248.838 38.22ZM250.644 50.316C251.4 50.316 251.89 50.022 252.114 49.434C252.366 48.874 252.492 48.104 252.492 47.124V44.184C251.092 44.828 250.098 45.458 249.51 46.074C248.922 46.718 248.628 47.432 248.628 48.216C248.628 48.86 248.796 49.364 249.132 49.728C249.496 50.12 250 50.316 250.644 50.316ZM265.778 21V24.528C266.114 24.024 266.436 23.548 266.744 23.1C267.08 22.652 267.444 22.26 267.836 21.924C268.228 21.588 268.662 21.322 269.138 21.126C269.614 20.902 270.146 20.79 270.734 20.79C271.686 20.79 272.386 21.042 272.834 21.546C273.282 22.022 273.506 22.61 273.506 23.31C273.506 23.73 273.436 24.08 273.296 24.36C273.156 24.64 272.988 24.864 272.792 25.032C272.596 25.2 272.386 25.326 272.162 25.41C271.938 25.466 271.742 25.494 271.574 25.494C271.322 25.494 271.112 25.438 270.944 25.326C270.804 25.214 270.65 25.102 270.482 24.99C270.342 24.85 270.174 24.724 269.978 24.612C269.782 24.5 269.53 24.444 269.222 24.444C268.578 24.444 267.962 24.668 267.374 25.116C266.786 25.564 266.254 26.04 265.778 26.544V42H261.578V21H265.778ZM291.186 21V35.28C291.186 35.56 291.2 35.91 291.228 36.33C291.256 36.75 291.326 37.17 291.438 37.59C291.578 37.982 291.774 38.332 292.026 38.64C292.278 38.92 292.628 39.06 293.076 39.06C294.448 39.06 295.456 37.534 296.1 34.482H297.654C297.346 36.246 296.954 37.646 296.478 38.682C296.002 39.69 295.498 40.46 294.966 40.992C294.434 41.524 293.888 41.86 293.328 42C292.768 42.168 292.264 42.252 291.816 42.252C291.172 42.252 290.612 42.14 290.136 41.916C289.688 41.692 289.296 41.398 288.96 41.034C288.652 40.67 288.4 40.25 288.204 39.774C288.008 39.298 287.854 38.794 287.742 38.262C287.322 39.354 286.636 40.292 285.684 41.076C284.76 41.86 283.626 42.252 282.282 42.252C281.442 42.252 280.588 42.084 279.72 41.748C278.88 41.412 278.11 40.866 277.41 40.11C276.738 39.326 276.178 38.332 275.73 37.128C275.31 35.896 275.1 34.398 275.1 32.634C275.1 31.346 275.24 30.002 275.52 28.602C275.828 27.202 276.304 25.928 276.948 24.78C277.592 23.632 278.418 22.68 279.426 21.924C280.434 21.168 281.652 20.79 283.08 20.79C283.416 20.79 283.766 20.832 284.13 20.916C284.522 20.972 284.886 21.084 285.222 21.252C285.586 21.42 285.922 21.658 286.23 21.966C286.538 22.246 286.79 22.596 286.986 23.016V21H291.186ZM283.332 39.06C283.752 39.06 284.172 38.948 284.592 38.724C285.04 38.472 285.432 38.15 285.768 37.758C286.132 37.338 286.426 36.848 286.65 36.288C286.874 35.728 286.986 35.126 286.986 34.482V24.906C286.79 24.458 286.482 24.052 286.062 23.688C285.67 23.296 285.152 23.1 284.508 23.1C283.612 23.1 282.842 23.408 282.198 24.024C281.554 24.612 281.036 25.368 280.644 26.292C280.252 27.188 279.958 28.182 279.762 29.274C279.594 30.338 279.51 31.36 279.51 32.34C279.51 34.748 279.832 36.47 280.476 37.506C281.148 38.542 282.1 39.06 283.332 39.06ZM300.273 21V23.898C301.001 22.554 301.771 21.7 302.583 21.336C303.395 20.972 304.165 20.79 304.893 20.79C305.621 20.79 306.251 20.888 306.783 21.084C307.343 21.28 307.819 21.546 308.211 21.882C308.603 22.218 308.925 22.61 309.177 23.058C309.457 23.506 309.681 23.996 309.849 24.528C310.241 23.688 310.647 23.03 311.067 22.554C311.487 22.05 311.907 21.672 312.327 21.42C312.747 21.14 313.153 20.972 313.545 20.916C313.965 20.832 314.343 20.79 314.679 20.79C315.939 20.79 316.947 21.028 317.703 21.504C318.487 21.98 319.075 22.596 319.467 23.352C319.859 24.08 320.111 24.892 320.223 25.788C320.363 26.656 320.433 27.496 320.433 28.308C320.433 28.812 320.419 29.372 320.391 29.988C320.363 30.576 320.335 31.192 320.307 31.836C320.279 32.452 320.251 33.082 320.223 33.726C320.195 34.342 320.181 34.916 320.181 35.448C320.181 35.672 320.195 35.994 320.223 36.414C320.251 36.806 320.321 37.198 320.433 37.59C320.545 37.982 320.727 38.332 320.979 38.64C321.231 38.92 321.595 39.06 322.071 39.06C322.827 39.06 323.415 38.934 323.835 38.682V38.976C323.835 39.676 323.737 40.25 323.541 40.698C323.345 41.118 323.093 41.44 322.785 41.664C322.505 41.888 322.183 42.042 321.819 42.126C321.483 42.21 321.175 42.252 320.895 42.252C319.999 42.252 319.243 42.084 318.627 41.748C318.011 41.384 317.507 40.908 317.115 40.32C316.723 39.732 316.429 39.046 316.233 38.262C316.065 37.478 315.981 36.666 315.981 35.826C315.981 35.574 315.981 35.112 315.981 34.44C316.009 33.74 316.023 32.998 316.023 32.214C316.051 31.43 316.065 30.688 316.065 29.988C316.093 29.288 316.107 28.798 316.107 28.518C316.107 27.622 316.037 26.88 315.897 26.292C315.757 25.704 315.561 25.242 315.309 24.906C315.057 24.57 314.763 24.332 314.427 24.192C314.119 24.052 313.783 23.982 313.419 23.982C312.551 23.982 311.837 24.332 311.277 25.032C310.745 25.732 310.367 26.908 310.143 28.56V42H305.943V27.972C305.943 27.468 305.915 26.978 305.859 26.502C305.831 26.026 305.733 25.606 305.565 25.242C305.397 24.85 305.159 24.542 304.851 24.318C304.543 24.094 304.123 23.982 303.591 23.982C302.695 23.982 302.009 24.36 301.533 25.116C301.085 25.844 300.665 26.992 300.273 28.56V42H296.073V21H300.273Z" fill="#7159C1"/>
<rect x="1" y="7" width="38" height="38" rx="9" stroke="#7159C1" stroke-width="2"/>
<rect x="31.1818" y="11.3636" width="3.81818" height="3.81818" rx="1.90909" stroke="#7159C1" stroke-width="2"/>
<circle cx="20" cy="26.3636" r="10.2727" stroke="#7159C1" stroke-width="2"/>
<circle cx="20.1818" cy="26.5454" r="5" stroke="#7159C1" stroke-width="2"/>
<line y1="25.3636" x2="8.72727" y2="25.3636" stroke="#7159C1" stroke-width="2"/>
<line x1="31.2727" y1="25" x2="40" y2="25" stroke="#7159C1" stroke-width="2"/>
<line x1="14.0909" y1="7.81818" x2="14.0909" y2="13.2727" stroke="#7159C1" stroke-width="2"/>
<line x1="10.0909" y1="7.81818" x2="10.0909" y2="13.2727" stroke="#7159C1" stroke-width="2"/>
<line x1="6.09088" y1="7.81818" x2="6.09088" y2="13.2727" stroke="#7159C1" stroke-width="2"/>
</svg>
